<?xml version="1.0" encoding="UTF-8"?>
<svg version="1.1" xmlns="http://www.w3.org/2000/svg" width="64" height="64">
<path d="M0 0 C5.93431181 4.27133768 10.20568179 9.34232669 12.03515625 16.46484375 C13.04493496 25.43593039 12.48101582 33.05847473 7.03515625 40.46484375 C3.81068803 43.91963113 0.39672658 46.5993008 -3.96484375 48.46484375 C-4.95484375 48.46484375 -5.94484375 48.46484375 -6.96484375 48.46484375 C-7.13359082 46.54835913 -7.29976018 44.63164742 -7.46484375 42.71484375 C-7.55765625 41.6475 -7.65046875 40.58015625 -7.74609375 39.48046875 C-7.91536658 37.14692195 -7.96484375 34.80452193 -7.96484375 32.46484375 C-7.01609375 32.03171875 -6.06734375 31.59859375 -5.08984375 31.15234375 C-1.76442438 29.67182174 -1.76442438 29.67182174 0.03515625 26.46484375 C0.38426025 22.37299246 0.38426025 22.37299246 -0.96484375 18.58984375 C-2.53564611 15.25188873 -2.08684337 12.12483236 -1.96484375 8.46484375 C-2.70734375 8.95984375 -3.44984375 9.45484375 -4.21484375 9.96484375 C-9.47046487 12.59265431 -16.54096605 12.56809323 -22.07421875 10.78515625 C-23.71484375 9.96484375 -23.71484375 9.96484375 -25.96484375 8.46484375 C-25.92359375 9.70234375 -25.88234375 10.93984375 -25.83984375 12.21484375 C-25.82795058 15.60439666 -26.36783821 17.47045837 -27.96484375 20.46484375 C-28.54829851 23.42230867 -28.54829851 23.42230867 -27.96484375 26.46484375 C-25.34117272 29.67155279 -22.8127296 31.89718655 -18.96484375 33.46484375 C-19.62484375 35.44484375 -20.28484375 37.42484375 -20.96484375 39.46484375 C-25.71484375 39.58984375 -25.71484375 39.58984375 -27.96484375 38.46484375 C-26.71600105 40.04816905 -26.71600105 40.04816905 -24.96484375 41.46484375 C-23.64484375 41.46484375 -22.32484375 41.46484375 -20.96484375 41.46484375 C-20.96484375 43.77484375 -20.96484375 46.08484375 -20.96484375 48.46484375 C-26.75244642 48.46484375 -29.91610204 45.562378 -33.90625 41.75390625 C-39.8267014 35.17063391 -40.6448471 28.53766552 -40.3359375 19.83203125 C-39.39420433 11.28704182 -35.75057583 6.66614654 -29.37890625 1.09375 C-21.20769726 -4.41983277 -8.67190296 -4.5547752 0 0 Z " fill="#000000" transform="translate(45.96484375,8.53515625)"/>
<path d="" fill="#000000" transform="translate(0,0)"/>
<path d="" fill="#000000" transform="translate(0,0)"/>
</svg>
