<?xml version="1.0" encoding="UTF-8"?>
<svg version="1.1" xmlns="http://www.w3.org/2000/svg" width="512" height="512">
<path d="M0 0 C3.15993407 2.52069346 6.08525098 5.20349638 9 8 C10.2662367 9.08870248 11.537116 10.17202778 12.8125 11.25 C16.36041384 14.35087669 19.72335643 17.61549622 23.0625 20.9375 C23.54501221 21.41541992 24.02752441 21.89333984 24.5246582 22.38574219 C31.13777457 29.02673377 37.13939252 36.20669201 42.9375 43.5625 C43.52595703 44.27857422 44.11441406 44.99464844 44.72070312 45.73242188 C47.4516843 49.21830842 48.90927492 51.23646418 49.44140625 55.71484375 C49 59 49 59 48.21484375 61.48046875 C47.86439087 65.59032525 50.20672795 68.09526419 52.5625 71.3125 C52.99369141 71.95767578 53.42488281 72.60285156 53.86914062 73.26757812 C55.1491717 75.05432755 56.32526217 76.57472773 58 78 C61.01828614 78.22396758 61.01828614 78.22396758 64 78 C67.79892839 80.54587677 69.92463705 83.0639882 72.05078125 87.078125 C72.58034424 88.06611084 73.10990723 89.05409668 73.65551758 90.07202148 C74.47572388 91.64512085 74.47572388 91.64512085 75.3125 93.25 C76.17234497 94.87047241 76.17234497 94.87047241 77.04956055 96.52368164 C78.71472498 99.67488736 80.36196418 102.83462051 82 106 C82.4125 106.79712402 82.825 107.59424805 83.25 108.41552734 C85.24643399 112.29876971 87.19164256 116.20400684 89.09375 120.13427734 C90.00908689 122.01870745 90.94176878 123.89391004 91.875 125.76953125 C121.5994319 186.33466401 121.5994319 186.33466401 115.6875 208.375 C106.86049048 232.34237684 90.13056536 252.99803184 74.05078125 272.4765625 C71.26212919 275.90793246 68.6082428 279.4302873 66 283 C67.12277344 283.04898437 68.24554688 283.09796875 69.40234375 283.1484375 C92.20184697 284.23582585 92.20184697 284.23582585 100 292 C103.77154888 296.95074282 106.13789073 301.35115483 106.09765625 307.66796875 C106.09443359 308.56064453 106.09121094 309.45332031 106.08789062 310.37304688 C106.07951172 311.30181641 106.07113281 312.23058594 106.0625 313.1875 C106.05798828 314.12787109 106.05347656 315.06824219 106.04882812 316.03710938 C106.03704626 318.35813712 106.02059558 320.67903644 106 323 C106.90758057 323.42756592 106.90758057 323.42756592 107.83349609 323.86376953 C127.43264712 334.14261209 141.10552816 359.64521857 150 379 C150.53923096 380.15532227 150.53923096 380.15532227 151.08935547 381.33398438 C161.70917907 404.27833211 167.99165343 428.28893096 173 453 C173.1846582 453.88171875 173.36931641 454.7634375 173.55957031 455.671875 C177.58624642 475.01223904 177.58624642 475.01223904 173.25 483.375 C170.51947614 486.56061117 167.76813488 489.11593256 164 491 C161.58193183 491.10001342 159.19252863 491.13926207 156.77408218 491.13422108 C155.6387299 491.13774942 155.6387299 491.13774942 154.48044121 491.14134905 C151.91763109 491.14806134 149.35487142 491.14758016 146.79205322 491.14717102 C144.94669191 491.15046826 143.10133133 491.15419353 141.25597167 491.1583125 C136.1641679 491.16835653 131.07237592 491.17205314 125.98056364 491.17470181 C120.49712845 491.17859774 115.01370265 491.18817653 109.53027344 491.19691467 C96.27772047 491.21669894 83.02516672 491.22674765 69.77260268 491.23564246 C63.53718047 491.24002203 57.30175912 491.24538969 51.06633759 491.25063133 C30.34781702 491.26764535 9.62929691 491.28216559 -11.08922958 491.28938007 C-12.42954294 491.28985483 -13.7698563 491.29033072 -15.11016966 491.29080774 C-15.77485559 491.29104411 -16.43954152 491.29128049 -17.12436945 491.29152403 C-20.49209266 491.29272525 -23.85981586 491.29394069 -27.22753906 491.29516602 C-28.23004786 491.29552624 -28.23004786 491.29552624 -29.25280936 491.29589374 C-50.92634141 491.30378825 -72.59981876 491.32722262 -94.27332691 491.35972196 C-117.17889795 491.39400617 -140.0844469 491.41372875 -162.99004579 491.41702431 C-175.47972419 491.41919261 -187.96932221 491.4279879 -200.45897675 491.45348549 C-211.09337281 491.47514497 -221.72766898 491.48326637 -232.3620846 491.47351871 C-237.79063421 491.46896024 -243.2189775 491.47094983 -248.64749908 491.49028015 C-253.61438666 491.50781436 -258.5809159 491.50699374 -263.54780677 491.49138286 C-265.3473078 491.48899191 -267.14683301 491.49340674 -268.9462969 491.50521151 C-271.38820943 491.52024211 -273.8288377 491.51072022 -276.27071762 491.49498463 C-276.9731306 491.50520683 -277.67554358 491.51542904 -278.39924181 491.52596101 C-283.3711412 491.45579733 -286.14747141 490.06965016 -290 487 C-293.25435495 483.56484755 -295.06949989 480.65250055 -296 476 C-295.76492083 467.60734706 -294.31976322 459.40275495 -292.6875 451.1875 C-292.46457275 450.05546143 -292.24164551 448.92342285 -292.01196289 447.75708008 C-287.0962282 423.22052645 -287.0962282 423.22052645 -282 418 C-278.75 417.6875 -278.75 417.6875 -276 418 C-275.5978125 416.081875 -275.5978125 416.081875 -275.1875 414.125 C-274.0548104 408.99937583 -272.56798699 404.00710512 -271 399 C-271.474375 398.608125 -271.94875 398.21625 -272.4375 397.8125 C-274.46524588 395.46031478 -274.80920678 394.10149908 -275 391 C-270.67689541 375.29206793 -261.10246622 359.60474066 -251 347 C-250.59700684 346.49162598 -250.19401367 345.98325195 -249.77880859 345.45947266 C-244.71790595 339.11573874 -239.40422375 333.195245 -233.4375 327.6875 C-232.92477539 327.213125 -232.41205078 326.73875 -231.88378906 326.25 C-228.26047825 323 -228.26047825 323 -226 323 C-226.02618408 322.44650879 -226.05236816 321.89301758 -226.0793457 321.32275391 C-226.97486711 299.53551148 -226.97486711 299.53551148 -219.54296875 291.40625 C-212.04571124 284.60135136 -203.71946036 283.93348481 -194.125 283.4375 C-193.34125 283.39431641 -192.5575 283.35113281 -191.75 283.30664062 C-189.83349351 283.20146649 -187.91676667 283.10032075 -186 283 C-186.5576001 282.32964722 -186.5576001 282.32964722 -187.12646484 281.64575195 C-238.34646013 219.98445409 -238.34646013 219.98445409 -236.79296875 195.7734375 C-231.71677918 167.28127667 -219.39486831 139.69596082 -206.12792969 114.17773438 C-204.81399958 111.6408823 -203.52101756 109.09371752 -202.2265625 106.546875 C-190.01565052 82.662363 -175.89594467 59.88233162 -159 39 C-158.34644531 38.19199951 -158.34644531 38.19199951 -157.6796875 37.36767578 C-138.52388038 13.88128798 -116.66259563 -6.07581929 -88 -17 C-86.85402344 -17.43699219 -85.70804688 -17.87398437 -84.52734375 -18.32421875 C-54.94037783 -27.83074106 -24.28929787 -17.34850395 0 0 Z " fill="#000101" transform="translate(316,21)"/>
<path d="M0 0 C1.01008967 -0.00706559 2.02017935 -0.01413118 3.0608778 -0.02141088 C4.1634961 -0.0189958 5.26611441 -0.01658071 6.40214539 -0.01409245 C7.57895276 -0.01932912 8.75576014 -0.0245658 9.96822834 -0.02996117 C13.2309699 -0.04236798 16.49357795 -0.04580471 19.7563386 -0.04536426 C23.27650831 -0.04701353 26.79663887 -0.06008181 30.31678772 -0.07155704 C38.0107963 -0.09439445 45.70477728 -0.10232577 53.39881516 -0.10738349 C58.20222637 -0.11064091 63.00562957 -0.11716352 67.80903625 -0.12438488 C81.1073989 -0.14394642 94.40575412 -0.16035415 107.70413208 -0.16326141 C108.55487071 -0.16344898 109.40560933 -0.16363655 110.28212792 -0.16382981 C112.00676982 -0.16419606 113.73141171 -0.16455976 115.45605361 -0.16492092 C116.31216771 -0.16510373 117.1682818 -0.16528654 118.05033875 -0.16547489 C118.90749674 -0.16565544 119.76465473 -0.16583599 120.64778721 -0.16602201 C134.54719284 -0.16956621 148.4464438 -0.1966059 162.34579575 -0.23397278 C176.61465308 -0.27202642 190.88343358 -0.29141866 205.1523428 -0.29172093 C213.16453089 -0.29230604 221.17653429 -0.30083289 229.18867493 -0.32971859 C236.00848453 -0.35419279 242.82804204 -0.36154212 249.64788365 -0.34647106 C253.12813029 -0.33928662 256.60787869 -0.34022456 260.08806992 -0.36288166 C263.85905475 -0.38318681 267.62873754 -0.37288007 271.39970398 -0.35466862 C272.50232228 -0.36786858 273.60494059 -0.38106855 274.74097157 -0.39466852 C282.15201372 -0.31257731 282.15201372 -0.31257731 286.05725098 2.67348289 C314.61703426 42.74138898 288.90092468 101.05540472 288.90092468 150.26006222 C189.24092468 150.26006222 89.58092468 150.26006222 -13.09907532 150.26006222 C-13.09907532 7.26006222 -13.09907532 7.26006222 -10.09907532 2.26006222 C-6.70432651 0.40240624 -3.83208594 0.00859059 0 0 Z " fill="#CCCCCC" transform="translate(118.09907531738281,320.7399377822876)"/>
<path d="M0 0 C1.04414063 0.3403125 2.08828125 0.680625 3.1640625 1.03125 C30.53261974 10.69842535 52.96447216 33.64623372 70.24707031 56.23046875 C71.47904982 57.83507836 72.73869804 59.41833541 74 61 C74.87011719 62.19302734 74.87011719 62.19302734 75.7578125 63.41015625 C78.44314064 65.31421296 79.21573574 65.05216662 82.3984375 64.796875 C86.50770909 64.611545 86.50770909 64.611545 88.68066406 66.32617188 C90.17151047 68.22994688 91.40851492 70.16073515 92.625 72.25 C93.06972656 72.93191406 93.51445312 73.61382812 93.97265625 74.31640625 C97.10034305 79.33434613 97.10034305 79.33434613 96.67333984 82.16699219 C96 84 96 84 95 85 C93.80884148 92.40366632 97.67983528 97.6794074 101.25 103.9375 C102.21718299 105.68609121 103.18432239 107.43471023 104.14762878 109.18544006 C104.80406691 110.37840808 105.46196557 111.57057355 106.12129211 112.76194763 C132 159.57028259 132 159.57028259 132 171 C127.31107329 169.58542334 123.12585915 167.58929706 118.8125 165.3125 C109.83026975 160.70657917 100.5455083 157.24641086 91 154 C90.30374512 153.76152344 89.60749023 153.52304688 88.89013672 153.27734375 C66.81512822 145.80333845 44.03348316 142.8739218 21 140 C19.91525391 139.86287598 18.83050781 139.72575195 17.71289062 139.58447266 C-9.11419359 136.32978362 -37.19666688 136.88223629 -64 140 C-65.62663574 140.1853833 -65.62663574 140.1853833 -67.28613281 140.37451172 C-101.20128323 144.38195931 -137.12122564 151.77345142 -166.9453125 169.26953125 C-170 171 -170 171 -172 171 C-169.92931707 163.30401512 -167.06629114 156.14133393 -163.8125 148.875 C-163.32273682 147.77333496 -162.83297363 146.67166992 -162.32836914 145.53662109 C-158.7657025 137.57904703 -155.05974817 129.72116895 -151.03320312 121.98828125 C-149.90145574 119.81036284 -148.78700982 117.62396729 -147.671875 115.4375 C-133.68864525 88.22192992 -116.78138859 62.51317097 -96 40 C-95.15953125 39.04480469 -94.3190625 38.08960938 -93.453125 37.10546875 C-70.50581572 11.11978128 -35.77786911 -12.15467334 0 0 Z " fill="#1D5F8A" transform="translate(276,18)"/>
<path d="M0 0 C0.91652344 0.01160156 1.83304687 0.02320313 2.77734375 0.03515625 C3.69644531 0.04417969 4.61554688 0.05320313 5.5625 0.0625 C6.27277344 0.07410156 6.98304688 0.08570313 7.71484375 0.09765625 C7.86179687 0.65453125 8.00875 1.21140625 8.16015625 1.78515625 C10.15341728 8.56682596 12.8240258 14.47637299 18.85090637 18.53674316 C25.30203187 21.93205937 30.48977724 22.81571172 37.7265625 22.69140625 C39.24525688 22.69146667 39.24525688 22.69146667 40.79463196 22.69152832 C42.91824611 22.68620339 45.04186181 22.66875191 47.1652832 22.63964844 C50.40442374 22.59762927 53.64149079 22.59860308 56.88085938 22.60546875 C58.95444144 22.59497979 61.02801287 22.58204327 63.1015625 22.56640625 C64.06213058 22.56620483 65.02269867 22.56600342 66.01237488 22.5657959 C71.6551538 22.46692986 75.75191879 21.86101547 80.71484375 19.09765625 C84.95122135 13.63495881 85.34107545 8.9189277 85.71484375 2.09765625 C89.34484375 2.09765625 92.97484375 2.09765625 96.71484375 2.09765625 C97.00463812 7.66170823 96.13260512 11.89048962 94.21484375 17.09765625 C93.94712158 17.83387207 93.67939941 18.57008789 93.40356445 19.32861328 C83.48465766 45.69046131 64.98105694 64.41211092 39.60107422 76.24462891 C28.10728343 81.44257157 17.17130579 83.47703767 4.58984375 83.41015625 C2.94387207 83.40278442 2.94387207 83.40278442 1.26464844 83.39526367 C-26.9285945 82.99137869 -50.08566682 71.1134477 -69.61328125 51.14453125 C-80.01367236 39.69359558 -91.47233154 20.49100872 -91.53515625 4.84765625 C-91.45265625 3.94015625 -91.37015625 3.03265625 -91.28515625 2.09765625 C-87.65515625 2.09765625 -84.02515625 2.09765625 -80.28515625 2.09765625 C-80.16140625 4.35609375 -80.16140625 4.35609375 -80.03515625 6.66015625 C-79.49809125 11.85423693 -78.43960125 14.92014801 -75.28515625 19.09765625 C-69.90503617 22.71272312 -64.80484795 22.56513077 -58.55078125 22.56640625 C-57.00097565 22.57782654 -57.00097565 22.57782654 -55.41986084 22.58947754 C-53.23793954 22.60025896 -51.05596672 22.60313963 -48.87402344 22.59863281 C-45.55965539 22.59766342 -42.24762623 22.63924898 -38.93359375 22.68359375 C-36.80599437 22.68880364 -34.67838701 22.6914889 -32.55078125 22.69140625 C-31.08152191 22.71599915 -31.08152191 22.71599915 -29.58258057 22.74108887 C-21.13941956 22.65758448 -14.60472421 20.13470779 -8.34765625 14.41015625 C-6.0580978 10.73298662 -4.93567139 7.34297386 -3.86328125 3.171875 C-3.07145238 0.33092141 -2.98996486 0.12777628 0 0 Z " fill="#FDDDB6" transform="translate(253.28515625,200.90234375)"/>
<path d="M0 0 C1.04414063 0.3403125 2.08828125 0.680625 3.1640625 1.03125 C30.53261974 10.69842535 52.96447216 33.64623372 70.24707031 56.23046875 C71.47904982 57.83507836 72.73869804 59.41833541 74 61 C74.87011719 62.19302734 74.87011719 62.19302734 75.7578125 63.41015625 C78.44314064 65.31421296 79.21573574 65.05216662 82.3984375 64.796875 C86.50770909 64.611545 86.50770909 64.611545 88.68066406 66.32617188 C90.17151047 68.22994688 91.40851492 70.16073515 92.625 72.25 C93.06972656 72.93191406 93.51445312 73.61382812 93.97265625 74.31640625 C97.10034305 79.33434613 97.10034305 79.33434613 96.67333984 82.16699219 C96 84 96 84 95 85 C93.80884148 92.40366632 97.67983528 97.6794074 101.25 103.9375 C102.21718299 105.68609121 103.18432239 107.43471023 104.14762878 109.18544006 C104.80406691 110.37840808 105.46196557 111.57057355 106.12129211 112.76194763 C132 159.57028259 132 159.57028259 132 171 C127.31112567 169.58543914 123.12570529 167.58956349 118.8125 165.3125 C106.54009194 159.01209482 93.43317901 154.16962651 80 151 C80.99 150.67 81.98 150.34 83 150 C73.99357275 129.39591084 64.54566795 109.32252242 53 90 C52.566875 89.27441895 52.13375 88.54883789 51.6875 87.80126953 C39.45004132 67.45171421 25.44463297 48.15364288 9 31 C8.49210937 30.46487793 7.98421875 29.92975586 7.4609375 29.37841797 C-3.27484175 18.11708795 -14.44700231 9.0807448 -28.1015625 1.59375 C-31 0 -31 0 -34 -2 C-23.24973175 -4.98352828 -10.40361208 -3.5343778 0 0 Z " fill="#12526F" transform="translate(276,18)"/>
<path d="M0 0 C8.79209054 4.2261498 18.89500709 10.81263492 23 20 C22.67609084 25.81203041 21.32502512 30.3265942 18.625 35.5 C18.27195801 36.18795654 17.91891602 36.87591309 17.55517578 37.5847168 C13.36490452 45.51842945 8.26111318 52.75095291 3 60 C2.45005371 60.76779785 1.90010742 61.5355957 1.33349609 62.32666016 C-6.31034084 72.99433765 -14.28856958 83.18667734 -23 93 C-24.31335439 94.49925198 -25.62600083 95.99912487 -26.9375 97.5 C-27.42089844 98.0465625 -27.90429688 98.593125 -28.40234375 99.15625 C-30.18017936 101.10509414 -30.18017936 101.10509414 -31.86938477 104.06542969 C-33.67163679 106.21003014 -34.66967994 106.92231236 -37.4249115 107.5703125 C-40.52671214 107.79561528 -43.57759307 107.83133934 -46.6875 107.796875 C-48.39039185 107.80548553 -48.39039185 107.80548553 -50.12768555 107.81427002 C-52.52492267 107.81834807 -54.92222658 107.80731035 -57.31933594 107.78222656 C-60.98784238 107.75010645 -64.65194303 107.78192602 -68.3203125 107.8203125 C-70.65105139 107.81634757 -72.98178753 107.80866006 -75.3125 107.796875 C-76.40844482 107.80902039 -77.50438965 107.82116577 -78.63354492 107.8336792 C-86.0132723 107.69745281 -86.0132723 107.69745281 -88.81632996 105.71615601 C-91.80581484 102.30464132 -92.58425679 99.58181131 -92.3125 95.125 C-92.26738281 94.15820312 -92.22226562 93.19140625 -92.17578125 92.1953125 C-92.08876953 91.10863281 -92.08876953 91.10863281 -92 90 C-91.20078125 89.59910156 -90.4015625 89.19820313 -89.578125 88.78515625 C-81.42207397 84.56353829 -74.155604 79.80716143 -67 74 C-65.70255859 72.95199219 -65.70255859 72.95199219 -64.37890625 71.8828125 C-50.09513895 59.71598419 -40.61875279 43.37422606 -34 26 C-32.64068359 25.96132812 -32.64068359 25.96132812 -31.25390625 25.921875 C-23.68579872 25.56949751 -17.56571362 24.89443827 -11 21 C-9.63875 20.195625 -9.63875 20.195625 -8.25 19.375 C-3.16198413 14.00431658 -0.47782643 7.32667189 0 0 Z " fill="#12526F" transform="translate(394,199)"/>
<path d="M0 0 C0.14695312 0.8353125 0.14695312 0.8353125 0.296875 1.6875 C2.03046157 10.53476941 4.41690837 16.4458314 11.90234375 21.7734375 C16.79949458 24.63694841 21.19731146 25.36707746 26.8125 25.625 C27.85180664 25.68300781 27.85180664 25.68300781 28.91210938 25.7421875 C30.60767015 25.83573568 32.30379712 25.91892364 34 26 C34.40089844 26.99257812 34.80179688 27.98515625 35.21484375 29.0078125 C46.05422861 55.17866721 64.10994936 76.69031335 90 89 C90.13637859 90.87293261 90.23261351 92.74880869 90.3125 94.625 C90.37050781 95.66914063 90.42851562 96.71328125 90.48828125 97.7890625 C89.97287471 101.17837593 89.03595275 103.13180311 86.77165222 105.70602417 C83.05618497 108.41971976 78.47085978 108.02214451 74.03125 108.078125 C72.95935425 108.10283875 71.8874585 108.12755249 70.78308105 108.15301514 C68.513812 108.19212057 66.24420433 108.2146073 63.97460938 108.22167969 C60.53443329 108.24971935 57.10909768 108.38409063 53.671875 108.5234375 C36.61457169 108.85986626 36.61457169 108.85986626 30.6550293 103.97290039 C27.7869099 101.12924034 25.38636383 98.05569581 23.14613342 94.70075989 C21.53304488 92.3070802 19.67626564 90.13833477 17.8125 87.9375 C16.53551891 86.29643205 15.26499538 84.65032464 14 83 C12.83404297 81.50919922 12.83404297 81.50919922 11.64453125 79.98828125 C-23.51469364 34.92611555 -23.51469364 34.92611555 -23 20 C-19.72411951 13.31174399 -8.09788034 0 0 0 Z " fill="#12526F" transform="translate(118,199)"/>
<path d="M0 0 C0.33 0 0.66 0 1 0 C1 35.31 1 70.62 1 107 C-3.95 107.99 -3.95 107.99 -9 109 C-13.22861328 111.11430664 -16.01989227 113.49937554 -18.26293945 117.73022461 C-19.24091729 120.74190395 -19.40610501 123.59764271 -19.60546875 126.75390625 C-19.6830542 127.92381104 -19.76063965 129.09371582 -19.84057617 130.29907227 C-19.89318604 131.19037842 -19.9457959 132.08168457 -20 133 C-24.53897705 133.02465392 -29.07791543 133.04283789 -33.61694336 133.05493164 C-35.16219766 133.0599714 -36.70744716 133.0668032 -38.25268555 133.07543945 C-40.46925029 133.08752076 -42.68575218 133.09323173 -44.90234375 133.09765625 C-45.94454323 133.10539818 -45.94454323 133.10539818 -47.00779724 133.11329651 C-48.6722933 133.11349277 -50.33665499 133.06189129 -52 133 C-53 132 -53 132 -53.0546875 129.8671875 C-52.3103128 117.47173061 -49.20703346 105.50715112 -46.40722656 93.4465332 C-46.22772461 92.66109131 -46.04822266 91.87564941 -45.86328125 91.06640625 C-45.70512939 90.38263916 -45.54697754 89.69887207 -45.3840332 88.99438477 C-44.70927755 85.49020236 -44.6367098 82.57235364 -45 79 C-46.051875 78.0409375 -46.051875 78.0409375 -47.125 77.0625 C-49 75 -49 75 -48.9609375 73.11328125 C-47.7347492 67.158994 -45.39435538 61.56745742 -43 56 C-41.3603125 55.8453125 -41.3603125 55.8453125 -39.6875 55.6875 C-35.88096683 54.97780737 -35.29057926 54.82361465 -33 52 C-31.83741575 49.93223129 -31.83741575 49.93223129 -30.8359375 47.60546875 C-30.44067871 46.73897705 -30.04541992 45.87248535 -29.63818359 44.97973633 C-29.01290771 43.59757935 -29.01290771 43.59757935 -28.375 42.1875 C-22.36339758 29.25361357 -15.23569612 17.92373301 -6 7 C-5.40703125 6.28457031 -4.8140625 5.56914062 -4.203125 4.83203125 C-2.83167338 3.19608539 -1.42040609 1.59362635 0 0 Z " fill="#1D5F89" transform="translate(89,364)"/>
<path d="M0 0 C1.65 1.65 3.3 3.3 5 5 C5.68320312 5.67417969 6.36640625 6.34835937 7.0703125 7.04296875 C35.49319688 36.70867887 51.84840479 89.45572199 54.0546875 129.6484375 C54 132 54 132 53 133 C50.6243148 133.0883967 48.27791326 133.11530305 45.90234375 133.09765625 C44.83905602 133.09553383 44.83905602 133.09553383 43.75428772 133.09336853 C41.48198288 133.08775443 39.20977525 133.07519963 36.9375 133.0625 C35.40039204 133.05748681 33.86328255 133.05292359 32.32617188 133.04882812 C28.55074358 133.03778042 24.77538829 133.02050641 21 133 C20.94521484 132.10796875 20.89042969 131.2159375 20.83398438 130.296875 C20.75470703 129.12640625 20.67542969 127.9559375 20.59375 126.75 C20.51833984 125.58984375 20.44292969 124.4296875 20.36523438 123.234375 C19.8406588 118.58893572 19.00984202 116.61181042 16 113 C10.63663906 109.03712983 6.76179234 107.96597033 0 107 C0 71.69 0 36.38 0 0 Z " fill="#12526F" transform="translate(422,364)"/>
<path d="M0 0 C1.78065479 -0.00782324 1.78065479 -0.00782324 3.59728241 -0.01580453 C4.91301491 -0.01134309 6.22874741 -0.00688164 7.58435059 -0.002285 C8.98708509 -0.00458743 10.38981838 -0.00776248 11.79254913 -0.01173949 C15.66073683 -0.02012619 19.52882646 -0.01594476 23.39701462 -0.00976706 C27.5633894 -0.00525932 31.72974679 -0.01221794 35.89611816 -0.0177269 C44.06340056 -0.02664057 52.23064629 -0.02469013 60.39793015 -0.01890162 C67.03307141 -0.01439287 73.66820237 -0.0137688 80.30334473 -0.01594925 C81.24611912 -0.01625572 82.18889352 -0.01656218 83.16023684 -0.01687793 C85.07520231 -0.01751736 86.99016778 -0.01816578 88.90513325 -0.01882312 C106.88026169 -0.02453219 124.85536977 -0.01795948 142.83049488 -0.00722238 C158.26863928 0.00171365 173.70675361 0.00016177 189.14489746 -0.00905991 C207.05378464 -0.01975236 224.96265396 -0.02398282 242.87154388 -0.01783538 C244.77963765 -0.01719825 246.68773142 -0.01656951 248.5958252 -0.01594925 C250.00421433 -0.01548642 250.00421433 -0.01548642 251.44105577 -0.01501425 C258.07158873 -0.01328422 264.70211039 -0.01620901 271.3326416 -0.02090836 C279.4082214 -0.02650582 287.4837623 -0.02502474 295.55933762 -0.01434687 C299.68306368 -0.0090748 303.80672479 -0.00705936 307.93045044 -0.01364517 C311.70044923 -0.01957519 315.47032243 -0.01637872 319.24030972 -0.00569007 C321.26083574 -0.00237361 323.28137038 -0.00895327 325.30188751 -0.01580453 C326.48899071 -0.01058903 327.6760939 -0.00537354 328.89916992 0 C330.44566349 0.00048706 330.44566349 0.00048706 332.02339935 0.00098395 C334.44958496 0.25168228 334.44958496 0.25168228 336.44958496 2.25168228 C336.69958496 5.75168228 336.69958496 5.75168228 336.44958496 9.25168228 C333.80039093 11.90087632 332.59872218 11.50219942 328.89916992 11.50336456 C327.71206673 11.50858006 326.52496353 11.51379555 325.30188751 11.51916909 C323.98615501 11.51470765 322.67042252 11.51024621 321.31481934 11.50564957 C319.91208484 11.50795199 318.50935154 11.51112704 317.10662079 11.51510406 C313.23843309 11.52349075 309.37034346 11.51930932 305.5021553 11.51313162 C301.33578053 11.50862389 297.16942313 11.51558251 293.00305176 11.52109146 C284.83576936 11.53000513 276.66852363 11.52805469 268.50123978 11.52226618 C261.86609851 11.51775743 255.23096755 11.51713336 248.5958252 11.51931381 C247.6530508 11.51962028 246.7102764 11.51992674 245.73893309 11.5202425 C243.82396761 11.52088192 241.90900214 11.52153035 239.99403667 11.52218768 C222.01890823 11.52789676 204.04380015 11.52132404 186.06867504 11.51058695 C170.63053064 11.50165091 155.19241632 11.50320279 139.75427246 11.51242447 C121.84538528 11.52311692 103.93651597 11.52734738 86.02762604 11.52119994 C84.11953227 11.52056281 82.2114385 11.51993407 80.30334473 11.51931381 C79.36441864 11.51900526 78.42549254 11.51869671 77.45811415 11.51837881 C70.82758119 11.51664879 64.19705953 11.51957357 57.56652832 11.52427292 C49.49094852 11.52987038 41.41540762 11.5283893 33.33983231 11.51771143 C29.21610624 11.51243937 25.09244513 11.51042393 20.96871948 11.51700974 C17.19872069 11.52293976 13.42884749 11.51974328 9.65886021 11.50905463 C7.63833418 11.50573817 5.61779954 11.51231783 3.59728241 11.51916909 C2.41017921 11.5139536 1.22307602 11.5087381 0 11.50336456 C-1.54649357 11.50287751 -1.54649357 11.50287751 -3.12422943 11.50238061 C-5.55041504 11.25168228 -5.55041504 11.25168228 -7.55041504 9.25168228 C-7.80041504 5.75168228 -7.80041504 5.75168228 -7.55041504 2.25168228 C-4.901221 -0.39751175 -3.69955226 0.00116515 0 0 Z " fill="#9A9B9E" transform="translate(91.5504150390625,485.74831771850586)"/>
<path d="M0 0 C7.95313861 4.64416853 13.21234729 11.46516688 16.140625 20.25 C16.7802072 28.99445172 16.86801483 36.6146434 12.140625 44.25 C11.79 44.87261719 11.439375 45.49523437 11.078125 46.13671875 C6.78259626 53.01254773 -0.1458166 57.14891879 -7.859375 59.25 C-16.34110601 60.10513349 -23.51057865 59.71806818 -30.859375 55.25 C-31.48328125 54.899375 -32.1071875 54.54875 -32.75 54.1875 C-39.61750301 49.88784594 -43.76679097 42.96402566 -45.859375 35.25 C-46.86106481 25.76030707 -46.26377575 18.2214911 -40.859375 10.25 C-40.1375 9.1775 -39.415625 8.105 -38.671875 7 C-28.25400513 -3.18636165 -13.39788141 -6.38839378 0 0 Z " fill="#030303" transform="translate(270.859375,374.75)"/>
<path d="M0 0 C3.63 0 7.26 0 11 0 C11.28979437 5.56405198 10.41776137 9.79283337 8.5 15 C8.23227783 15.73621582 7.96455566 16.47243164 7.6887207 17.23095703 C-2.23018609 43.59280506 -20.73378681 62.31445467 -46.11376953 74.14697266 C-58.05852752 79.54886036 -69.06439837 81.3224277 -82.125 81.125 C-83.27226562 81.11597656 -84.41953125 81.10695313 -85.6015625 81.09765625 C-88.40126748 81.07432538 -91.20051695 81.04159232 -94 81 C-94 80.34 -94 79.68 -94 79 C-93.04480469 78.52691406 -92.08960938 78.05382812 -91.10546875 77.56640625 C-82.54105761 73.22747536 -75.12135653 68.52524896 -68 62 C-67.08605469 61.17886719 -66.17210937 60.35773438 -65.23046875 59.51171875 C-53.6306976 48.56088584 -46.23260535 35.54962508 -40 21 C-39.18845459 20.98541748 -38.37690918 20.97083496 -37.54077148 20.95581055 C-33.83921807 20.88102368 -30.13853621 20.78446239 -26.4375 20.6875 C-25.16068359 20.66494141 -23.88386719 20.64238281 -22.56835938 20.61914062 C-13.36015177 20.41147749 -13.36015177 20.41147749 -5 17 C-0.7636224 11.53730256 -0.3737683 6.82127145 0 0 Z " fill="#F2CDA4" transform="translate(339,203)"/>
<path d="M0 0 C15.84 0 31.68 0 48 0 C48 14 48 14 45 20 C41.90944045 22.06037303 41.29073838 22.24799242 37.80395508 22.22705078 C36.96331009 22.22689972 36.1226651 22.22674866 35.25654602 22.22659302 C34.35333115 22.21627045 33.45011627 22.20594788 32.51953125 22.1953125 C31.12754768 22.19106766 31.12754768 22.19106766 29.70744324 22.18673706 C26.74233121 22.17553836 23.77752079 22.15043435 20.8125 22.125 C18.80273874 22.1149698 16.79297274 22.10584402 14.78320312 22.09765625 C9.85525895 22.07730126 4.92796725 22.038152 0 22 C0 14.74 0 7.48 0 0 Z " fill="#4C4C4C" transform="translate(188,187)"/>
<path d="M0 0 C15.84 0 31.68 0 48 0 C48 7.26 48 14.52 48 22 C42.41278146 22.06900956 36.82705183 22.12870122 31.23974609 22.16479492 C29.34060647 22.17984691 27.44150141 22.20029316 25.54248047 22.22631836 C22.80687919 22.26285992 20.071739 22.27976238 17.3359375 22.29296875 C16.49195404 22.30845261 15.64797058 22.32393646 14.77841187 22.33988953 C9.81639705 22.34129431 6.19216343 21.95948214 2 19 C0 14 0 14 0 0 Z " fill="#4C4C4C" transform="translate(276,187)"/>
<path d="M0 0 C4.04516872 2.30921807 6.29774957 4.97980995 7.6875 9.4375 C8.54648376 15.10481812 7.97157424 19.62085778 4.6875 24.4375 C0.68403611 28.47377917 -2.89841754 30.56208106 -8.625 30.75 C-13.25476662 30.68987316 -15.7494151 29.50341027 -19.3125 26.4375 C-23.59208742 21.69525449 -24.68761172 18.03812098 -24.5859375 11.78515625 C-24.06057916 7.27457968 -22.20459411 4.09430779 -18.8046875 1.1171875 C-12.88286967 -2.82150994 -6.42839976 -2.76014934 0 0 Z " fill="#FBFBFB" transform="translate(264.3125,388.5625)"/>
<path d="M0 0 C43.27994147 -0.04573523 86.55988039 -0.08099772 129.83984124 -0.10213066 C134.94449706 -0.1046322 140.04915284 -0.10722083 145.15380859 -0.10986328 C146.170093 -0.1103879 147.1863774 -0.11091252 148.2334583 -0.11145304 C164.70882396 -0.12016576 181.18417572 -0.13594049 197.65953313 -0.15430559 C214.5532273 -0.17298056 231.44691418 -0.18411162 248.34061825 -0.18817699 C258.77263494 -0.19092705 269.20461236 -0.19962608 279.63661696 -0.21583293 C286.78132447 -0.22637018 293.92601154 -0.22960806 301.07072626 -0.22700275 C305.19849414 -0.22571636 309.3261932 -0.22774689 313.45394897 -0.23841095 C317.22771954 -0.24808979 321.00137449 -0.24867018 324.77515019 -0.24179779 C326.79776655 -0.24054255 328.8203814 -0.24921642 330.84297836 -0.25816262 C332.62548325 -0.25218947 332.62548325 -0.25218947 334.44399834 -0.24609566 C335.47607819 -0.2468551 336.50815805 -0.24761454 337.57151306 -0.24839699 C340 0 340 0 342 2 C342.1875 5.5625 342.1875 5.5625 342 9 C341 10 341 10 339.17137146 10.12025452 C338.37417191 10.11803391 337.57697235 10.11581329 336.75561523 10.11352539 C335.85475693 10.11344986 334.95389862 10.11337433 334.02574158 10.11329651 C333.04658279 10.10813522 332.06742401 10.10297394 331.05859375 10.09765625 C330.06118668 10.0962413 329.0637796 10.09482635 328.03614807 10.09336853 C324.83656876 10.08775114 321.63705831 10.07519571 318.4375 10.0625 C316.27408955 10.05748724 314.11067801 10.05292395 311.94726562 10.04882812 C306.63148371 10.03777606 301.31575354 10.02049979 296 10 C296 7.03 296 4.06 296 1 C198.32 1 100.64 1 0 1 C0 0.67 0 0.34 0 0 Z " fill="#7B7C7F" transform="translate(86,486)"/>
<path d="M0 0 C2.57161458 0.48828125 5.14322917 0.9765625 7.71484375 1.46484375 C16.08095732 2.82769459 24.27453579 3.19302307 32.75 3.1875 C33.90072998 3.18741943 35.05145996 3.18733887 36.23706055 3.18725586 C44.02171465 3.13486922 51.38159813 2.68614064 59 1 C60.65 0.67 62.3 0.34 64 0 C64.495 5.445 64.495 5.445 65 11 C43.22 11 21.44 11 -1 11 C-0.67 7.37 -0.34 3.74 0 0 Z " fill="#F4D5B0" transform="translate(223,295)"/>
<path d="M0 0 C20.13 0 40.26 0 61 0 C61 0.33 61 0.66 61 1 C59.82244141 1.03867188 59.82244141 1.03867188 58.62109375 1.078125 C49.58934892 1.56497218 49.58934892 1.56497218 42 6 C40.2941218 8.95346077 39.18562941 11.775088 38 15 C34.7 15 31.4 15 28 15 C25.125 8.375 25.125 8.375 24 5 C21.62374655 3.81608777 21.62374655 3.81608777 19 3 C18.01 2.67 17.02 2.34 16 2 C13.26710707 1.77202438 10.54957796 1.58331813 7.8125 1.4375 C7.06291016 1.39431641 6.31332031 1.35113281 5.54101562 1.30664062 C3.69421625 1.20077315 1.84713166 1.0999024 0 1 C0 0.67 0 0.34 0 0 Z " fill="#F5D6B0" transform="translate(223,171)"/>
<path d="M0 0 C0.33695862 2.72876308 0.66968429 5.45793163 1 8.1875 C1.09539062 8.95642578 1.19078125 9.72535156 1.2890625 10.51757812 C1.75192894 14.36928811 2.12467468 18.11170851 2 22 C-4.70972718 22.80979466 -4.70972718 22.80979466 -7.8671875 20.828125 C-11.53219036 17.14558624 -12.36162728 14.23774451 -12.375 9.0625 C-12.2795008 7.37307372 -12.16445227 5.68411303 -12 4 C-10.75539217 3.32332002 -9.50403104 2.65905281 -8.25 2 C-7.55390625 1.62875 -6.8578125 1.2575 -6.140625 0.875 C-4 0 -4 0 0 0 Z " fill="#EDC28D" transform="translate(145,188)"/>
<path d="M0 0 C4.56454251 0.54339792 7.9728176 1.79463821 12 4 C13.03024531 14.55047508 13.03024531 14.55047508 9.5 19.1875 C6.95838246 21.74127839 5.21597049 22.41194149 1.625 22.4375 C0.42875 22.293125 -0.7675 22.14875 -2 22 C-1.33333333 14.66666667 -0.66666667 7.33333333 0 0 Z " fill="#EEC38E" transform="translate(367,188)"/>
<path d="M0 0 C-0.66 2.97 -1.32 5.94 -2 9 C-6.29 9 -10.58 9 -15 9 C-15 7.02 -15 5.04 -15 3 C-13.0636296 2.49564306 -11.12585854 1.99666126 -9.1875 1.5 C-8.10855469 1.2215625 -7.02960938 0.943125 -5.91796875 0.65625 C-3 0 -3 0 0 0 Z " fill="#E9CCA8" transform="translate(175,179)"/>
<path d="M0 0 C4.95 0.99 9.9 1.98 15 3 C15 4.98 15 6.96 15 9 C10.71 9 6.42 9 2 9 C1.34 6.03 0.68 3.06 0 0 Z " fill="#E0BE98" transform="translate(337,179)"/>
</svg>
