<?xml version="1.0" encoding="UTF-8"?>
<svg version="1.1" xmlns="http://www.w3.org/2000/svg" width="512" height="512">
<path d="M0 0 C3.65105925 0.00543568 7.30211202 0.00780607 10.95317459 0.00987244 C44.89725609 0.03981473 78.70993805 0.34795912 112.56172562 3.08030701 C115.70526429 3.33146486 118.84962607 3.56907134 121.99440384 3.80418396 C157.33276571 6.4590008 157.33276571 6.4590008 173.31227493 8.77879333 C174.11062759 8.8920697 174.90898026 9.00534607 175.73152542 9.12205505 C195.81222062 12.18866688 212.4200348 22.01991325 226.53493118 36.31785583 C227.34704056 37.13125427 228.15914993 37.94465271 228.99586868 38.78269958 C241.94486903 52.41671531 249.68594584 69.47098286 252.10524368 88.04832458 C252.22786072 88.94923325 252.35047775 89.85014191 252.47681046 90.77835083 C253.82962151 101.03325992 254.741384 111.32413404 255.59743118 121.63035583 C255.76903467 123.65135425 255.94066593 125.67235031 256.11232376 127.69334412 C258.87116664 160.51978302 260.69186534 193.33388693 260.70289993 226.28269958 C260.70613166 228.6164044 260.70949697 230.95010903 260.71298599 233.28381348 C260.71891871 238.14697232 260.72083225 243.01011356 260.72023392 247.87327576 C260.72015312 252.76426427 260.72703234 257.6551582 260.74074173 262.54612732 C260.82339033 292.53160719 260.48053637 322.3900162 258.53493118 352.31785583 C258.41077332 354.24560349 258.41077332 354.24560349 258.28410721 356.21229553 C257.78692021 363.7322726 257.21521348 371.24441174 256.59743118 378.75535583 C256.51089279 379.82421021 256.4243544 380.89306458 256.33519363 381.99430847 C255.75819298 389.10421601 255.15741271 396.21179105 254.53493118 403.31785583 C254.43341751 404.48426605 254.43341751 404.48426605 254.32985306 405.67424011 C251.59654679 436.79113556 243.31051953 463.38853732 218.53493118 484.31785583 C191.54674431 505.072612 159.49534663 505.75484392 126.97243118 508.38035583 C125.9724913 508.46253357 124.97255142 508.5447113 123.94231033 508.62937927 C116.14433666 509.26435474 108.34266299 509.81722481 100.53493118 510.31785583 C99.84010509 510.36242542 99.14527901 510.40699501 98.42939758 510.45291519 C68.6477295 512.34047804 38.90689366 512.68271782 9.07168198 512.63591385 C5.41699555 512.63027023 1.76231378 512.62745185 -1.89237595 512.62483215 C-35.74110364 512.58956081 -69.47005949 512.34593302 -103.22452927 509.58079529 C-106.76766 509.29330339 -110.31176906 509.0207068 -113.8561821 508.74949646 C-121.54096089 508.15712911 -129.22219398 507.52712755 -136.90256882 506.88035583 C-138.6688765 506.73456589 -138.6688765 506.73456589 -140.47086716 506.58583069 C-169.80709175 504.11878999 -194.82852812 498.29045937 -216.46506882 477.31785583 C-217.38159225 476.51154724 -217.38159225 476.51154724 -218.31663132 475.68894958 C-245.02599703 451.35781506 -244.85814096 411.83710829 -247.52756882 378.69285583 C-247.60974655 377.68864594 -247.69192429 376.68443604 -247.77659225 375.64979553 C-248.40691257 367.87671517 -248.95843674 360.09994939 -249.46506882 352.31785583 C-249.5096384 351.6406461 -249.55420799 350.96343636 -249.60012817 350.26570511 C-251.46706583 321.67116885 -251.81057323 293.11952275 -251.78074265 264.46995544 C-251.77613547 259.68698154 -251.78296648 254.90426347 -251.80125046 250.12132263 C-252.00537856 196.1321771 -250.39130694 141.54205797 -242.98460007 87.98582458 C-242.8107579 86.69906326 -242.8107579 86.69906326 -242.63340378 85.38630676 C-241.55577152 77.92118546 -239.50088355 71.24574075 -236.46506882 64.31785583 C-236.02292038 63.29562927 -235.58077194 62.27340271 -235.12522507 61.22019958 C-226.61911938 42.95916938 -212.70278633 29.23516662 -195.46506882 19.31785583 C-194.63620163 18.82672302 -193.80733444 18.33559021 -192.95335007 17.82957458 C-177.40058347 9.30063806 -159.79564225 7.82615036 -142.46506882 6.31785583 C-141.58949326 6.24115662 -140.71391769 6.1644574 -139.81180954 6.08543396 C-132.51078842 5.44959661 -125.20730922 4.84677455 -117.90256882 4.25535583 C-116.40225113 4.13195328 -116.40225113 4.13195328 -114.87162399 4.00605774 C-107.07393105 3.37116536 -99.27251379 2.81846847 -91.46506882 2.31785583 C-90.42282969 2.25100145 -90.42282969 2.25100145 -89.35953522 2.18279648 C-59.57718166 0.29519019 -29.83587854 -0.04620563 0 0 Z M-142.42600632 109.97801208 C-151.90182762 120.85160779 -154.40386707 132.34038856 -153.66038132 146.28074646 C-152.56897154 157.66415048 -145.38541886 167.3706818 -136.88694382 174.52879333 C-127.93066859 181.14488052 -117.59434271 184.43789458 -106.46506882 183.31785583 C-98.04718299 181.96050026 -91.45720308 179.14760783 -84.46506882 174.31785583 C-83.13475632 173.45160583 -83.13475632 173.45160583 -81.77756882 172.56785583 C-72.99809941 164.02566939 -67.50823928 152.59784643 -67.15256882 140.31785583 C-67.30782011 127.51824964 -72.7162235 117.26922668 -81.21506882 108.06785583 C-98.77826994 91.17757429 -125.42986621 93.87803209 -142.42600632 109.97801208 Z M29.30885696 218.5868988 C26.49021639 221.71036861 23.8698137 224.81553205 21.53493118 228.31785583 C21.5308223 227.73818054 21.52671341 227.15850525 21.52248001 226.56126404 C21.48943842 223.91661474 21.41878854 221.27423744 21.34743118 218.63035583 C21.3416304 217.71834412 21.33582962 216.8063324 21.32985306 215.86668396 C21.17743985 211.20961374 21.06703236 208.99390709 18.10914993 205.23582458 C14.59693184 202.61898227 12.92707328 202.18929261 8.6137886 202.15672302 C7.58899902 202.14711548 6.56420944 202.13750793 5.50836563 202.12760925 C4.39693695 202.12335938 3.28550827 202.1191095 2.14039993 202.11473083 C0.43114082 202.10618073 0.43114082 202.10618073 -1.31264877 202.09745789 C-3.72778517 202.08799814 -6.14293454 202.08147005 -8.5580864 202.07762146 C-12.25191952 202.06792318 -15.94519468 202.03691119 -19.63889694 202.00535583 C-21.98329467 201.99882523 -24.32769639 201.99357498 -26.67210007 201.98973083 C-27.77745605 201.97738403 -28.88281204 201.96503723 -30.02166367 201.95231628 C-31.05590973 201.95531738 -32.09015579 201.95831848 -33.15574265 201.96141052 C-34.06238159 201.95776489 -34.96902054 201.95411926 -35.90313339 201.95036316 C-39.05241179 202.4021063 -40.90193737 203.45659449 -43.46506882 205.31785583 C-45.96129447 209.06219431 -45.75275395 211.97834769 -45.73922348 216.31367493 C-45.74446016 217.13758795 -45.74969684 217.96150097 -45.7550922 218.81038105 C-45.77013657 221.58098767 -45.77079832 224.35141034 -45.7714653 227.12205505 C-45.77908378 229.10451064 -45.78751074 231.08696325 -45.79668808 233.06941223 C-45.8186701 238.46196597 -45.8274369 243.854463 -45.83251452 249.24705648 C-45.83615358 252.61423132 -45.84239127 255.98139119 -45.84951591 259.34856033 C-45.87402283 271.09012253 -45.88706509 282.83164046 -45.89060593 294.57322693 C-45.89424264 305.52677383 -45.92414469 316.48004078 -45.96601051 327.43350208 C-46.00067159 336.83060034 -46.01615364 346.22760564 -46.01685196 355.62476742 C-46.01764617 361.24040357 -46.02645109 366.85575468 -46.05484962 372.47132492 C-46.08095867 377.75241459 -46.08327549 383.03298143 -46.06719398 388.31410599 C-46.06537381 390.25353888 -46.07212125 392.19300135 -46.0880127 394.13237 C-46.10837321 396.77822697 -46.09798144 399.42223739 -46.07979965 402.06806946 C-46.09299962 402.83743045 -46.10619959 403.60679144 -46.11979955 404.3994664 C-46.0567641 408.40938613 -45.617842 410.13006635 -43.05256557 413.28331566 C-39.22935807 416.28949113 -36.44770883 416.43972929 -31.6999321 416.47898865 C-30.75860428 416.48859619 -29.81727646 416.49820374 -28.84742355 416.50810242 C-27.33171265 416.51447723 -27.33171265 416.51447723 -25.78538132 416.52098083 C-24.21710083 416.52953094 -24.21710083 416.52953094 -22.61713791 416.53825378 C-20.40646499 416.54769379 -18.19577806 416.5542338 -15.98508835 416.55809021 C-12.60967531 416.56779944 -9.23487035 416.59883427 -5.85960007 416.63035583 C-3.70986409 416.63688591 -1.56012377 416.64213636 0.58961868 416.64598083 C2.0992569 416.66450104 2.0992569 416.66450104 3.63939285 416.68339539 C8.99997268 416.66641873 12.97538583 416.46782846 17.53493118 413.31785583 C20.14582545 410.40996138 20.90958909 408.58425703 20.9067421 404.69255066 C20.9134996 403.76778931 20.92025711 402.84302795 20.92721939 401.89024353 C20.91950012 400.88247864 20.91178085 399.87471375 20.90382767 398.83641052 C20.90759415 397.7691272 20.91136063 396.70184387 20.91524124 395.60221863 C20.92168005 393.28216683 20.92133777 390.96208867 20.91505623 388.64203644 C20.90594499 384.95740211 20.91617467 381.27327671 20.93167496 377.58866882 C20.97174901 367.11136192 20.97299129 356.63409381 20.9707222 346.15672302 C20.97067077 339.74587435 20.9900105 333.33529662 21.02005577 326.9245224 C21.03079326 323.31755368 21.01879617 319.71112258 21.0062294 316.10417175 C21.03532601 297.74589978 22.3864571 279.25912213 35.50758743 265.07566833 C44.25662459 257.48979797 54.41427129 256.61795416 65.53493118 257.31785583 C73.61574193 258.65333996 80.24730682 262.00145106 85.25758743 268.57957458 C92.46559648 279.8609057 93.67957783 291.52182582 93.69264603 304.58982849 C93.69772675 305.70447983 93.70280746 306.81913116 93.70804214 307.96755981 C93.71871277 310.37925567 93.72734581 312.79096122 93.73416138 315.20267105 C93.74598299 319.01881791 93.76544166 322.83485326 93.78728104 326.6509552 C93.84880718 337.49789513 93.90326646 348.3448133 93.93629837 359.19187927 C93.95661009 365.83305648 93.99248656 372.4740431 94.03705597 379.11510849 C94.05123051 381.64525795 94.05994167 384.17544408 94.06311035 386.70563126 C94.06800625 390.23886711 94.09112833 393.77154861 94.11842728 397.30467224 C94.11542114 398.35103348 94.11241501 399.39739471 94.10931778 400.47546387 C94.13619392 407.4129605 94.13619392 407.4129605 97.53493118 413.31785583 C100.90240839 415.56284064 102.08289792 415.58188359 106.02858353 415.62425232 C107.15340134 415.64023972 108.27821915 415.65622711 109.43712234 415.67269897 C110.65275864 415.67806168 111.86839493 415.68342438 113.12086868 415.68894958 C114.36994003 415.69797806 115.61901138 415.70700653 116.90593338 415.71630859 C119.55064176 415.7308293 122.19491764 415.7404974 124.83961868 415.74339294 C128.22161665 415.74877457 131.60241887 415.78644453 134.98407936 415.83213711 C138.21710464 415.86910993 141.45016039 415.87042404 144.68336868 415.87644958 C145.89495651 415.8959819 147.10654434 415.91551422 148.35484695 415.93563843 C149.48596909 415.9295607 150.61709122 415.92348297 151.78248978 415.91722107 C152.77493698 415.92229172 153.76738419 415.92736237 154.78990555 415.93258667 C158.8881863 415.01480306 160.16605077 413.80832062 162.53493118 410.31785583 C163.26592078 406.32877345 163.19705597 402.39506355 163.15016556 398.34934998 C163.15848907 396.52857689 163.15848907 396.52857689 163.16698074 394.67102051 C163.1767674 391.34292622 163.16415993 388.01638595 163.14069557 384.68845677 C163.12050253 381.183371 163.12647184 377.67831693 163.12880325 374.17318726 C163.12874965 368.26920587 163.10900407 362.36554404 163.07692337 356.46165466 C163.04031951 349.69371221 163.03120746 342.92619259 163.03822088 336.15816408 C163.04460094 329.60197264 163.03361662 323.04592228 163.01425552 316.48975945 C163.00620578 313.72520834 163.00334863 310.96073066 163.00494766 308.1961689 C162.99115407 278.81020316 162.38671631 244.55415167 141.53493118 221.31785583 C140.891689 220.58309021 140.24844681 219.84832458 139.58571243 219.09129333 C127.8820309 206.52611999 111.050894 200.01886722 93.99708939 199.19529724 C70.67593841 198.53213655 46.30366708 200.44273908 29.30885696 218.5868988 Z M-142.46506882 206.31785583 C-144.47177703 210.99662546 -144.75162755 215.34612402 -144.72576523 220.36399841 C-144.72959078 221.15710073 -144.73341632 221.95020304 -144.7373578 222.76733875 C-144.7476483 225.41575629 -144.74370321 228.06395543 -144.73972702 230.71238708 C-144.74407563 232.61484477 -144.74925927 234.5173007 -144.75521469 236.41975403 C-144.76859852 241.58081378 -144.76918414 246.74180027 -144.76665139 251.90287399 C-144.76558147 256.21217469 -144.77046549 260.52146057 -144.77525681 264.83075809 C-144.78634943 274.99606497 -144.78679049 285.1613349 -144.78074265 295.3266449 C-144.77469931 305.81380639 -144.78702359 316.30083383 -144.80831271 326.78797245 C-144.82592225 335.79364153 -144.83193118 344.79926791 -144.82867497 353.80495358 C-144.82686127 359.18295881 -144.82950723 364.56086838 -144.84338951 369.93885803 C-144.855953 374.9950062 -144.85403773 380.05094509 -144.84097862 385.10709 C-144.83861024 386.96224157 -144.84135689 388.81740781 -144.84960175 390.67254257 C-144.86004858 393.2058429 -144.8519854 395.73843831 -144.83929062 398.27171326 C-144.8466649 399.00498746 -144.85403919 399.73826166 -144.86163694 400.49375629 C-144.81241659 405.16561348 -143.90128799 408.33745865 -141.46506882 412.31785583 C-137.6590328 415.87834114 -133.97747242 416.43494189 -128.89939499 416.47898865 C-128.00133636 416.48859619 -127.10327774 416.49820374 -126.17800522 416.50810242 C-124.73262123 416.51447723 -124.73262123 416.51447723 -123.25803757 416.52098083 C-122.25928101 416.52668091 -121.26052444 416.53238098 -120.23150253 416.53825378 C-118.11918316 416.54769312 -116.00684912 416.55423353 -113.89451218 416.55809021 C-110.67492903 416.56778848 -107.4559864 416.59881933 -104.23655319 416.63035583 C-102.18121843 416.6368871 -100.12587911 416.64213709 -98.07053757 416.64598083 C-97.11302094 416.65832764 -96.1555043 416.67067444 -95.16897202 416.68339539 C-89.51028313 416.66468244 -85.38175981 416.23080377 -80.46506882 413.31785583 C-77.18318952 409.16588068 -77.03878073 405.33086289 -77.08411789 400.23338318 C-77.07943792 399.42409552 -77.07475795 398.61480785 -77.06993616 397.78099632 C-77.05797912 395.0717615 -77.0674461 392.36303184 -77.07688522 389.65379333 C-77.07281984 387.7104513 -77.06747814 385.76711158 -77.06095505 383.82377625 C-77.04727176 378.54698781 -77.05258432 373.27037522 -77.0620923 367.99358368 C-77.06968362 362.47325158 -77.06264476 356.95293461 -77.05793381 351.43260193 C-77.05247472 342.16190384 -77.0596719 332.89127742 -77.07395554 323.62059021 C-77.09028231 312.89996026 -77.08499392 302.17950146 -77.06847632 291.45887566 C-77.05486583 282.25705944 -77.05293966 273.05529478 -77.06079233 263.85347176 C-77.06547124 258.35644347 -77.06608767 252.85949566 -77.05618286 247.36247253 C-77.04752188 242.1947045 -77.05351932 237.02715731 -77.07086563 231.85941315 C-77.0748351 229.96192034 -77.07368857 228.06440897 -77.06707764 226.16692352 C-77.05889027 223.57847359 -77.06914959 220.99073312 -77.08411789 218.40232849 C-77.07742572 217.64989553 -77.07073356 216.89746258 -77.0638386 216.12222862 C-77.11383402 211.67061969 -77.76193048 208.87750142 -80.46506882 205.31785583 C-85.11721667 201.10783762 -90.98091168 201.86804038 -96.89866257 201.88426208 C-98.56470284 201.87639931 -98.56470284 201.87639931 -100.26440048 201.86837769 C-102.61033417 201.86196209 -104.95630004 201.86328846 -107.30222702 201.87181091 C-110.88638888 201.88031743 -114.46895508 201.8515563 -118.05295944 201.81980896 C-120.33486001 201.81819672 -122.61676339 201.81877491 -124.89866257 201.82176208 C-126.50202721 201.80491112 -126.50202721 201.80491112 -128.13778305 201.78771973 C-133.98717285 201.84234855 -138.0642039 202.02344542 -142.46506882 206.31785583 Z " fill="#000000" transform="translate(251.46506881713867,-0.3178558349609375)"/>
</svg>
